<svg version="1.1" id="Layer_1" xmlns="http://www.w3.org/2000/svg" xmlns:xlink="http://www.w3.org/1999/xlink" x="0px" y="0px"
	 width="100%" viewBox="0 0 1119 615" enable-background="new 0 0 1119 615" xml:space="preserve">
<path fill="#000000" opacity="1.000000" stroke="none" 
	d="
M846.000000,616.000000 
	C564.000000,616.000000 282.500031,616.000000 1.000038,616.000000 
	C1.000025,411.000031 1.000025,206.000061 1.000013,1.000065 
	C373.999969,1.000044 746.999939,1.000044 1120.000000,1.000022 
	C1120.000000,205.999939 1120.000000,410.999878 1120.000000,615.999878 
	C1028.833374,616.000000 937.666687,616.000000 846.000000,616.000000 
M871.969421,379.069489 
	C871.924133,363.711151 871.878784,348.352783 871.968933,332.067505 
	C871.968933,326.481537 871.968933,320.895569 871.968933,315.044678 
	C888.704834,315.044678 904.797852,315.044678 920.988098,315.971832 
	C920.991394,341.965210 920.738953,367.962402 921.126648,393.950043 
	C921.276917,404.023438 924.412354,409.948792 935.962769,409.029144 
	C937.943604,408.871429 939.954224,409.088593 941.992981,409.934875 
	C943.614807,419.966888 945.261780,424.288055 957.641174,424.097656 
	C980.449524,423.746796 1003.267090,424.004700 1026.080811,423.997559 
	C1034.936523,423.994781 1038.841309,420.099548 1039.523926,410.932129 
	C1039.628906,410.630615 1039.733765,410.329132 1039.979980,409.196808 
	C1039.931152,407.796600 1039.882324,406.396393 1039.971313,404.068237 
	C1039.979614,386.800629 1040.026855,369.532898 1039.956543,352.265594 
	C1039.945312,349.523254 1039.405640,346.783112 1039.816406,343.544586 
	C1039.823120,325.027985 1039.829834,306.511353 1039.970337,287.253265 
	C1039.924072,286.504181 1039.877808,285.755096 1039.976562,284.259674 
	C1039.927856,283.504333 1039.879150,282.748962 1039.967896,281.066162 
	C1039.922729,255.708313 1039.877563,230.350464 1039.968994,204.065155 
	C1039.980957,181.118103 1040.312622,158.164825 1039.866333,135.226685 
	C1039.650879,124.155434 1037.108154,116.835953 1022.554016,117.978745 
	C1021.399292,118.069420 1020.228210,117.952744 1018.989197,117.142189 
	C1018.657532,115.750946 1018.238281,114.373917 1018.009705,112.965942 
	C1017.129517,107.546188 1012.505554,103.064308 1007.187073,103.040688 
	C993.790527,102.981171 980.393005,103.112190 966.069275,103.020317 
	C955.257629,103.013206 944.445618,103.060516 933.634583,102.975891 
	C928.277100,102.933952 924.479553,105.450912 922.497925,110.152550 
	C921.401489,112.754196 921.068848,115.841331 921.058838,118.711937 
	C920.959045,147.320923 920.998352,175.930405 920.998474,204.539749 
	C920.998474,206.295563 920.998535,208.051376 920.998535,210.166626 
	C909.574524,210.166626 898.783997,210.166626 887.070862,210.022675 
	C882.069824,209.979279 877.068787,209.935883 872.006836,208.973633 
	C871.948730,197.314438 871.890564,185.655243 871.972534,173.068573 
	C871.982727,159.140533 872.013428,145.212463 871.995361,131.284470 
	C871.984680,123.029190 866.893921,118.036148 858.552124,117.991463 
	C856.065674,117.978142 853.579407,117.942955 851.007080,117.081009 
	C852.053223,109.043182 845.126099,103.004417 839.384705,103.012581 
	C827.588135,103.029350 815.791748,103.111420 803.068787,103.019630 
	C791.440430,103.012970 779.809692,103.144531 768.184814,102.939423 
	C762.648132,102.841736 757.986450,104.057274 754.940186,109.450317 
	C752.245361,104.572052 748.357666,102.850731 743.430298,102.978531 
	C738.287048,103.111931 733.140320,103.109650 727.068604,103.020111 
	C702.377625,103.068985 677.686646,103.117851 652.069458,103.018013 
	C636.712402,103.067352 621.355347,103.116699 605.173584,103.033745 
	C603.940735,103.356430 602.725769,103.829979 601.472290,103.978371 
	C589.569275,105.387543 578.291504,108.686432 567.256897,114.996635 
	C565.781006,115.978630 564.305115,116.960625 561.978271,117.966568 
	C559.688782,117.950600 557.399353,117.934631 555.009033,117.068474 
	C554.981812,108.241570 551.270447,103.087349 544.293518,103.052208 
	C524.863770,102.954338 505.432831,103.110359 485.076141,103.010727 
	C465.717926,103.062714 446.359711,103.114708 426.075378,103.011444 
	C407.050964,103.063103 388.026581,103.114761 368.075989,103.011101 
	C358.769470,103.007339 349.452698,102.749756 340.161530,103.125587 
	C336.480713,103.274475 332.856812,104.830521 329.265900,105.731102 
	C326.860840,104.941513 323.962006,103.444412 320.939728,103.128632 
	C316.675201,102.683060 312.319336,103.111595 307.076233,103.011406 
	C292.051331,103.063194 277.026459,103.114983 261.075317,103.012909 
	C255.913132,103.008728 250.737717,103.238289 245.591782,102.946999 
	C237.342239,102.480011 230.654739,109.030647 225.247559,121.243599 
	C224.381561,122.770447 223.491821,124.284363 222.653229,125.826111 
	C213.444321,142.756500 204.306412,159.725998 194.996490,176.600601 
	C192.630417,180.889206 189.724411,184.879913 186.991119,188.273376 
	C186.324478,187.174011 185.615829,186.097702 184.997498,184.971802 
	C175.461380,167.608047 165.906509,150.254456 156.422913,132.862015 
	C151.768661,124.326378 146.355530,116.991402 135.005844,117.188004 
	C134.336258,116.100601 133.626709,115.035576 133.003586,113.922173 
	C128.944427,106.669380 123.201706,102.795509 114.459045,102.902428 
	C91.319122,103.185410 68.166504,103.337036 45.033195,102.855682 
	C34.205933,102.630394 29.921520,108.174088 29.934053,117.845062 
	C30.053381,209.918869 30.005035,301.992889 30.004940,394.066864 
	C30.004940,395.232361 29.847927,396.423737 30.033985,397.558807 
	C30.789282,402.166412 31.957739,406.866699 37.264168,407.954529 
	C41.711285,408.866150 46.365425,408.767944 50.986691,409.950714 
	C50.592644,419.298981 56.052685,424.283600 64.992630,424.125519 
	C86.814865,423.739624 108.651802,423.769745 130.476212,424.087067 
	C142.545441,424.262543 145.544922,418.646179 145.852539,408.971588 
	C146.339310,393.662354 145.887466,378.323273 145.970917,362.068909 
	C145.924850,342.378357 145.878784,322.687805 145.970673,302.071564 
	C145.999054,296.726593 146.027420,291.381653 146.743454,286.243164 
	C150.989044,296.108948 156.518570,304.381104 169.221405,304.742798 
	C174.080368,314.849182 181.623245,320.117828 193.315125,319.100739 
	C199.898468,318.528076 206.572540,318.970032 213.205490,319.005157 
	C218.893402,319.035278 223.894287,317.200623 227.531815,312.845642 
	C230.605713,309.165497 233.125534,305.022491 235.992004,302.006134 
	C235.994980,333.226379 236.035568,364.446686 235.976028,395.666809 
	C235.959991,404.075867 240.863312,409.719452 249.466736,409.036469 
	C251.936356,408.840424 254.440903,409.084534 256.984528,409.959747 
	C257.084625,418.843048 260.818542,423.918854 267.878448,423.950409 
	C287.584015,424.038483 307.290619,423.888977 327.924408,423.975952 
	C335.470917,422.872375 343.886871,427.017242 350.036804,420.748352 
	C353.101196,421.889435 355.919159,423.803619 358.770691,423.854980 
	C373.174988,424.114319 387.588013,423.888763 402.925842,423.975800 
	C428.616608,423.928406 454.307404,423.881012 480.926025,423.976105 
	C510.950348,423.926086 540.974670,423.876068 571.926392,423.967194 
	C590.285034,423.922607 608.643738,423.878021 627.930725,423.967987 
	C652.288574,423.923248 676.646484,423.878510 701.932312,423.967896 
	C713.491333,424.358368 724.986023,423.963654 736.248169,420.985870 
	C745.836609,418.450592 755.293274,415.596985 764.001282,409.003662 
	C767.653259,409.048950 771.305237,409.094238 774.992920,409.969879 
	C775.098267,418.951111 778.834534,423.933716 786.043884,423.953278 
	C809.362671,424.016541 832.681946,423.887939 856.870483,423.968964 
	C867.693604,425.225891 871.706665,418.664246 871.896667,412.211914 
	C872.212463,401.483795 871.888123,390.736877 871.969421,379.069489 
z"/>
<path fill="#C6F0E7" opacity="1.000000" stroke="none" 
	d="
M50.927895,409.116882 
	C46.365425,408.767944 41.711285,408.866150 37.264168,407.954529 
	C31.957739,406.866699 30.789282,402.166412 30.033985,397.558807 
	C29.847927,396.423737 30.004940,395.232361 30.004940,394.066864 
	C30.005035,301.992889 30.053381,209.918869 29.934053,117.845062 
	C29.921520,108.174088 34.205933,102.630394 45.033195,102.855682 
	C68.166504,103.337036 91.319122,103.185410 114.459045,102.902428 
	C123.201706,102.795509 128.944427,106.669380 133.003586,113.922173 
	C133.626709,115.035576 134.336258,116.100601 135.146057,117.881088 
	C139.836609,127.051994 144.386917,135.529816 148.558517,144.067322 
	C147.460327,145.951706 146.167145,147.767838 146.139648,149.602921 
	C146.080597,153.545715 146.986603,157.501968 146.940033,161.446136 
	C146.811859,172.297867 146.149841,183.146454 146.160645,193.995834 
	C146.172531,205.945526 146.755463,217.893631 146.977997,229.844513 
	C147.106415,236.741852 147.016068,243.643311 147.020721,250.542908 
	C147.023376,254.449280 147.306854,258.382080 146.951218,262.255890 
	C146.401367,268.245117 144.067017,274.270721 148.582748,279.882812 
	C148.915375,280.296204 146.919434,282.583252 145.736847,283.789032 
	C145.001007,282.697754 144.547653,281.809387 144.065796,280.936737 
	C137.647751,269.313751 131.225677,257.692963 124.790703,245.896713 
	C124.613632,245.832596 124.450485,245.943375 124.227173,246.515228 
	C124.220345,267.992798 124.273682,289.009308 124.253250,310.486755 
	C124.234528,330.638794 124.289589,350.329834 124.266647,370.481506 
	C124.158630,378.255554 124.134399,385.569061 124.097267,392.882477 
	C124.037766,404.602325 119.609016,408.975464 107.775070,409.001190 
	C88.826019,409.042358 69.876953,409.078583 50.927895,409.116882 
z"/>
<path fill="#DDD6EF" opacity="1.000000" stroke="none" 
	d="
M774.957214,409.139526 
	C771.305237,409.094238 767.653259,409.048950 763.353149,408.723694 
	C755.928223,406.032928 753.768677,400.831329 753.974792,394.135803 
	C754.066284,391.163910 753.990295,388.186829 753.990295,385.212097 
	C743.875610,394.161224 733.034973,400.035706 721.005127,403.449585 
	C721.329956,401.273224 721.932068,399.481201 721.901672,397.700012 
	C721.708008,386.354065 720.350586,374.918579 721.358215,363.690430 
	C722.507507,350.883331 721.218262,338.156830 721.934326,325.411743 
	C722.080322,322.814270 721.092346,320.164215 721.141907,317.548126 
	C721.273743,310.587463 721.973022,303.630005 721.921570,296.675140 
	C721.840576,285.714355 721.284668,274.757751 721.034302,263.796997 
	C720.974915,261.196106 721.429382,258.587433 721.473389,255.979385 
	C721.564026,250.602478 722.004761,245.173401 721.434021,239.858932 
	C720.798279,233.939270 724.547485,227.952148 721.383301,222.091339 
	C732.621521,226.833191 743.470154,231.650513 753.892883,236.278732 
	C753.892883,224.954010 753.892883,212.514450 753.933960,199.604950 
	C753.975098,193.040329 753.975098,186.945663 753.975098,180.965897 
	C750.402588,182.044250 747.203918,183.610489 743.901917,183.872192 
	C738.298889,184.316269 732.630615,183.937683 726.992676,183.482880 
	C726.150269,175.288986 725.834656,167.553513 727.912476,159.877258 
	C728.286438,158.495880 727.974731,156.908478 727.876587,155.422989 
	C726.929810,141.089600 724.384460,126.732185 728.638245,112.481758 
	C728.849304,111.774796 728.492065,110.906403 728.437744,110.110558 
	C728.279724,107.796646 728.141235,105.481400 727.995117,103.166687 
	C733.140320,103.109650 738.287048,103.111931 743.430298,102.978531 
	C748.357666,102.850731 752.245361,104.572052 754.940186,109.450317 
	C757.986450,104.057274 762.648132,102.841736 768.184814,102.939423 
	C779.809692,103.144531 791.440430,103.012970 803.525330,103.454590 
	C803.822205,107.908875 803.508118,111.929268 803.535706,115.947304 
	C803.589844,123.841782 804.035217,131.738235 803.906067,139.627121 
	C803.850159,143.036118 802.166992,146.446289 802.267700,149.824753 
	C802.566162,159.829117 803.729309,169.811356 803.920654,179.814377 
	C804.220093,195.469666 804.000000,211.134872 804.000000,226.795883 
	C804.000000,238.092026 804.000061,249.388153 804.000000,260.684296 
	C804.000000,268.275635 804.067871,275.867859 803.965698,283.457825 
	C803.925964,286.412018 803.177063,289.376465 803.315552,292.309570 
	C803.721558,300.904907 804.792603,309.482544 804.888672,318.075134 
	C804.997314,327.786957 804.041687,337.508362 804.071716,347.223999 
	C804.110718,359.863831 804.975159,372.504333 804.883057,385.140198 
	C804.825378,393.043457 803.660400,400.938660 802.527222,408.895599 
	C793.027222,409.015686 783.992188,409.077606 774.957214,409.139526 
z"/>
<path fill="#DEF1ED" opacity="1.000000" stroke="none" 
	d="
M308.002533,103.166428 
	C312.319336,103.111595 316.675201,102.683060 320.939728,103.128632 
	C323.962006,103.444412 326.860840,104.941513 329.265900,105.731102 
	C332.856812,104.830521 336.480713,103.274475 340.161530,103.125587 
	C349.452698,102.749756 358.769470,103.007339 368.618988,103.428131 
	C372.436554,105.667969 374.127930,107.859062 371.784729,111.726822 
	C371.000702,113.020958 371.056458,114.927979 371.032135,116.559372 
	C370.948792,122.149742 371.000305,127.742126 371.000336,133.333740 
	C371.000427,148.148712 371.014099,162.963715 370.991638,177.778656 
	C370.985443,181.865967 370.830963,185.953003 370.820007,190.040359 
	C370.811310,193.290695 370.917786,196.541336 370.972992,199.791840 
	C371.042267,203.874542 371.245850,207.960770 371.139343,212.038879 
	C371.049103,215.493942 370.325592,218.942780 370.365082,222.388840 
	C370.457062,230.418121 370.924988,238.442505 371.073303,246.471970 
	C371.164246,251.395081 370.693176,256.335632 370.921448,261.247620 
	C371.343079,270.319672 372.528046,279.373993 372.580292,288.440399 
	C372.629272,296.937927 368.085419,305.403870 372.439056,313.965637 
	C372.649445,314.379425 372.762390,314.997498 372.616821,315.414307 
	C370.632690,321.095490 371.320496,326.715210 371.718781,332.647217 
	C372.615143,345.997711 371.999420,359.449707 372.000214,372.860382 
	C372.000916,384.852966 372.003113,396.845520 371.539124,408.901093 
	C362.048462,409.030182 353.023285,409.096283 343.563232,409.101959 
	C339.327942,408.166901 335.532623,407.268738 331.723938,406.431580 
	C330.547424,406.172943 328.894287,405.491394 328.207550,406.004639 
	C322.586670,410.205078 316.209717,408.859039 310.002930,408.402710 
	C309.874542,397.643921 312.273376,387.247070 309.110138,377.003662 
	C308.977325,376.573639 309.270630,376.027924 309.286957,375.533539 
	C309.505768,368.906403 309.789642,362.280060 309.895447,355.650940 
	C309.991211,349.649811 309.858948,343.645386 309.880585,337.642639 
	C309.914825,328.146576 310.105865,318.649597 310.013245,309.155121 
	C309.953583,303.034851 309.175018,296.910492 309.321625,290.802429 
	C309.476440,284.352386 312.451111,277.842743 308.419495,271.560333 
	C308.059509,270.999420 308.441315,269.977936 308.436859,269.170563 
	C308.420990,266.308411 308.403900,263.446014 308.353760,260.584351 
	C308.321991,258.769135 308.022552,256.933563 308.206604,255.144501 
	C308.701294,250.335648 309.727264,245.557846 309.884216,240.746231 
	C309.987122,237.592300 308.431824,234.386780 308.519501,231.229355 
	C308.723663,223.875977 309.794037,216.542633 309.906250,209.191895 
	C310.011261,202.312378 309.067596,195.420639 309.074799,188.534790 
	C309.082367,181.246490 309.886627,173.960007 309.927307,166.670410 
	C309.957336,161.295105 309.136536,155.919739 309.028137,150.537689 
	C308.905609,144.456940 309.227936,138.368652 309.224487,132.283722 
	C309.220795,125.769173 309.151031,119.251793 308.934692,112.741478 
	C308.828400,109.542999 308.325775,106.357697 308.002533,103.166428 
z"/>
<path fill="#D7CEEE" opacity="1.000000" stroke="none" 
	d="
M802.992310,408.837463 
	C803.660400,400.938660 804.825378,393.043457 804.883057,385.140198 
	C804.975159,372.504333 804.110718,359.863831 804.071716,347.223999 
	C804.041687,337.508362 804.997314,327.786957 804.888672,318.075134 
	C804.792603,309.482544 803.721558,300.904907 803.315552,292.309570 
	C803.177063,289.376465 803.925964,286.412018 803.965698,283.457825 
	C804.067871,275.867859 804.000000,268.275635 804.000000,260.684296 
	C804.000061,249.388153 804.000000,238.092026 804.000000,226.795883 
	C804.000000,211.134872 804.220093,195.469666 803.920654,179.814377 
	C803.729309,169.811356 802.566162,159.829117 802.267700,149.824753 
	C802.166992,146.446289 803.850159,143.036118 803.906067,139.627121 
	C804.035217,131.738235 803.589844,123.841782 803.535706,115.947304 
	C803.508118,111.929268 803.822205,107.908875 803.988525,103.528076 
	C815.791748,103.111420 827.588135,103.029350 839.384705,103.012581 
	C845.126099,103.004417 852.053223,109.043182 850.998779,117.969589 
	C851.003784,139.573013 851.017029,160.287872 850.993774,181.470032 
	C850.944763,190.356552 850.845825,198.777481 851.012878,207.193115 
	C851.038025,208.458527 852.317383,210.788956 852.997070,210.781815 
	C859.356384,210.714905 865.711426,210.245468 872.067749,209.892487 
	C877.068787,209.935883 882.069824,209.979279 887.585083,210.448151 
	C888.629089,212.266205 889.624390,213.663940 889.609070,215.050476 
	C889.538147,221.439545 889.143860,227.824173 888.943359,234.212845 
	C888.598389,245.205399 888.193665,256.198059 888.033691,267.193878 
	C887.879333,277.805481 888.002625,288.421143 887.536316,299.076111 
	C875.201416,299.117218 863.334106,299.117218 851.046143,299.117218 
	C851.046143,309.557159 851.046143,319.280609 850.993835,329.470032 
	C850.976562,344.958740 851.011597,359.981476 850.990967,375.469696 
	C850.919495,381.086273 851.286194,386.273102 850.809570,391.381195 
	C849.755432,402.680328 849.603577,408.195618 835.533203,409.104553 
	C824.375854,408.976471 813.684082,408.906952 802.992310,408.837463 
z"/>
<path fill="#E5F1EF" opacity="1.000000" stroke="none" 
	d="
M372.004608,408.838104 
	C372.003113,396.845520 372.000916,384.852966 372.000214,372.860382 
	C371.999420,359.449707 372.615143,345.997711 371.718781,332.647217 
	C371.320496,326.715210 370.632690,321.095490 372.616821,315.414307 
	C372.762390,314.997498 372.649445,314.379425 372.439056,313.965637 
	C368.085419,305.403870 372.629272,296.937927 372.580292,288.440399 
	C372.528046,279.373993 371.343079,270.319672 370.921448,261.247620 
	C370.693176,256.335632 371.164246,251.395081 371.073303,246.471970 
	C370.924988,238.442505 370.457062,230.418121 370.365082,222.388840 
	C370.325592,218.942780 371.049103,215.493942 371.139343,212.038879 
	C371.245850,207.960770 371.042267,203.874542 370.972992,199.791840 
	C370.917786,196.541336 370.811310,193.290695 370.820007,190.040359 
	C370.830963,185.953003 370.985443,181.865967 370.991638,177.778656 
	C371.014099,162.963715 371.000427,148.148712 371.000336,133.333740 
	C371.000305,127.742126 370.948792,122.149742 371.032135,116.559372 
	C371.056458,114.927979 371.000702,113.020958 371.784729,111.726822 
	C374.127930,107.859062 372.436554,105.667969 369.082092,103.505791 
	C388.026581,103.114761 407.050964,103.063103 426.538208,103.491806 
	C427.018982,111.314056 426.407227,118.724533 427.197723,125.982277 
	C428.488800,137.836380 428.428955,149.662781 428.693542,161.535004 
	C428.860535,169.026901 429.352570,176.153946 425.610779,183.081177 
	C424.228638,184.915970 422.448578,186.671738 422.374756,188.496521 
	C422.043365,196.688568 422.132874,204.901215 422.256805,213.103607 
	C422.272278,214.129272 423.394592,215.138214 424.056030,216.514877 
	C425.427917,219.757706 426.932159,222.570099 424.733429,225.783371 
	C424.294250,226.425140 424.721893,227.651520 424.728943,228.608490 
	C424.780212,235.585510 428.870270,242.674118 424.134033,249.542343 
	C423.815399,250.004395 423.979584,250.848526 424.027649,251.507034 
	C425.009949,264.972412 426.008118,278.436676 426.584961,291.963074 
	C423.128296,291.649109 422.123871,292.974182 422.216675,296.007568 
	C422.531403,306.295502 422.614105,316.590424 422.826935,326.881836 
	C422.839355,327.481873 423.218781,328.074280 423.602722,329.170929 
	C427.749329,329.170929 431.876831,329.170929 435.942017,329.549835 
	C435.475128,333.288422 435.002777,336.641846 434.691803,340.010162 
	C434.511902,341.958954 434.707489,343.943085 434.516388,345.889923 
	C434.377289,347.306946 433.520172,348.713013 433.610840,350.082367 
	C433.937836,355.017517 434.712860,359.926178 434.952576,364.862640 
	C435.088989,367.672363 434.235565,370.524658 434.317017,373.343628 
	C434.501984,379.746155 435.153351,386.136139 435.303436,392.538513 
	C435.430664,397.966003 435.120544,403.403778 434.538940,408.900299 
	C426.383484,409.030731 418.693054,409.097870 410.537506,409.101440 
	C397.383118,408.971313 384.693878,408.904694 372.004608,408.838104 
z"/>
<path fill="#CEC2ED" opacity="1.000000" stroke="none" 
	d="
M888.003906,299.034973 
	C888.002625,288.421143 887.879333,277.805481 888.033691,267.193878 
	C888.193665,256.198059 888.598389,245.205399 888.943359,234.212845 
	C889.143860,227.824173 889.538147,221.439545 889.609070,215.050476 
	C889.624390,213.663940 888.629089,212.266205 888.046326,210.520126 
	C898.783997,210.166626 909.574524,210.166626 920.998535,210.166626 
	C920.998535,208.051376 920.998474,206.295563 920.998474,204.539749 
	C920.998352,175.930405 920.959045,147.320923 921.058838,118.711937 
	C921.068848,115.841331 921.401489,112.754196 922.497925,110.152550 
	C924.479553,105.450912 928.277100,102.933952 933.634583,102.975891 
	C944.445618,103.060516 955.257629,103.013206 966.544861,103.479492 
	C967.100037,105.864990 967.372437,107.806068 967.226318,109.715126 
	C966.547729,118.581055 965.752075,127.438019 965.000305,136.298355 
	C964.240479,145.253952 968.142151,153.847672 965.482056,163.270218 
	C963.471069,170.393463 965.291809,178.545273 965.025269,186.226089 
	C964.576538,199.155273 967.661194,212.044052 965.133484,225.023071 
	C964.429504,228.637711 965.052124,232.541794 965.278870,236.300262 
	C965.770020,244.441055 966.754211,252.568390 966.872437,260.710876 
	C966.993774,269.068481 965.590881,277.492584 966.213501,285.785614 
	C966.794312,293.521942 965.281128,301.130035 966.584229,308.993988 
	C967.845215,316.603394 966.091187,324.674347 966.088623,332.542694 
	C966.086304,339.491638 966.956116,346.441986 966.927795,353.389587 
	C966.892334,362.097290 966.059509,370.803314 966.072693,379.509247 
	C966.087463,389.287933 966.662292,399.065765 966.527954,408.898407 
	C958.025391,409.012756 949.988220,409.072662 941.951111,409.132568 
	C939.954224,409.088593 937.943604,408.871429 935.962769,409.029144 
	C924.412354,409.948792 921.276917,404.023438 921.126648,393.950043 
	C920.738953,367.962402 920.991394,341.965210 921.199158,315.183014 
	C921.555786,311.113068 921.566711,307.818909 921.883057,304.554352 
	C922.232544,300.947693 921.005310,299.650177 917.199951,299.665802 
	C907.468994,299.705597 897.736023,299.276520 888.003906,299.034973 
z"/>
<path fill="#C9BBEC" opacity="1.000000" stroke="none" 
	d="
M966.993530,408.843964 
	C966.662292,399.065765 966.087463,389.287933 966.072693,379.509247 
	C966.059509,370.803314 966.892334,362.097290 966.927795,353.389587 
	C966.956116,346.441986 966.086304,339.491638 966.088623,332.542694 
	C966.091187,324.674347 967.845215,316.603394 966.584229,308.993988 
	C965.281128,301.130035 966.794312,293.521942 966.213501,285.785614 
	C965.590881,277.492584 966.993774,269.068481 966.872437,260.710876 
	C966.754211,252.568390 965.770020,244.441055 965.278870,236.300262 
	C965.052124,232.541794 964.429504,228.637711 965.133484,225.023071 
	C967.661194,212.044052 964.576538,199.155273 965.025269,186.226089 
	C965.291809,178.545273 963.471069,170.393463 965.482056,163.270218 
	C968.142151,153.847672 964.240479,145.253952 965.000305,136.298355 
	C965.752075,127.438019 966.547729,118.581055 967.226318,109.715126 
	C967.372437,107.806068 967.100037,105.864990 967.008179,103.552750 
	C980.393005,103.112190 993.790527,102.981171 1007.187073,103.040688 
	C1012.505554,103.064308 1017.129517,107.546188 1018.009705,112.965942 
	C1018.238281,114.373917 1018.657532,115.750946 1018.716675,117.827698 
	C1018.319641,118.990448 1018.085876,119.467773 1018.086243,119.944931 
	C1018.108154,148.637985 1018.149231,177.331024 1018.135742,206.488281 
	C1018.124695,231.308548 1018.166443,255.664597 1018.149475,280.484619 
	C1018.134888,300.970520 1018.179077,320.992493 1018.159546,341.478363 
	C1018.125488,359.965210 1018.155212,377.988098 1018.119385,396.394775 
	C1016.442383,404.818817 1012.658752,408.843475 1005.927185,408.908691 
	C992.950745,409.034393 979.971558,408.881378 966.993530,408.843964 
z"/>
<path fill="#D8F1EC" opacity="1.000000" stroke="none" 
	d="
M307.539368,103.088913 
	C308.325775,106.357697 308.828400,109.542999 308.934692,112.741478 
	C309.151031,119.251793 309.220795,125.769173 309.224487,132.283722 
	C309.227936,138.368652 308.905609,144.456940 309.028137,150.537689 
	C309.136536,155.919739 309.957336,161.295105 309.927307,166.670410 
	C309.886627,173.960007 309.082367,181.246490 309.074799,188.534790 
	C309.067596,195.420639 310.011261,202.312378 309.906250,209.191895 
	C309.794037,216.542633 308.723663,223.875977 308.519501,231.229355 
	C308.431824,234.386780 309.987122,237.592300 309.884216,240.746231 
	C309.727264,245.557846 308.701294,250.335648 308.206604,255.144501 
	C308.022552,256.933563 308.321991,258.769135 308.353760,260.584351 
	C308.403900,263.446014 308.420990,266.308411 308.436859,269.170563 
	C308.441315,269.977936 308.059509,270.999420 308.419495,271.560333 
	C312.451111,277.842743 309.476440,284.352386 309.321625,290.802429 
	C309.175018,296.910492 309.953583,303.034851 310.013245,309.155121 
	C310.105865,318.649597 309.914825,328.146576 309.880585,337.642639 
	C309.858948,343.645386 309.991211,349.649811 309.895447,355.650940 
	C309.789642,362.280060 309.505768,368.906403 309.286957,375.533539 
	C309.270630,376.027924 308.977325,376.573639 309.110138,377.003662 
	C312.273376,387.247070 309.874542,397.643921 309.537292,408.464355 
	C293.716095,408.921661 278.359192,408.882568 263.003418,408.440491 
	C262.724426,403.162567 262.174561,398.285156 262.219818,393.413269 
	C262.317230,382.923279 262.806488,372.437500 262.972107,361.947418 
	C263.105713,353.486572 262.937073,345.021179 263.034363,336.559357 
	C263.068268,333.608002 263.815369,330.647125 263.685699,327.714935 
	C263.268005,318.270142 261.778687,308.793121 262.280334,299.412933 
	C262.668884,292.147949 262.216003,285.008484 262.057068,277.810303 
	C261.941284,272.565399 261.910553,267.311981 262.086151,262.070526 
	C262.160461,259.851959 263.253754,257.642944 263.189667,255.449860 
	C263.079315,251.673050 262.642578,247.872040 261.955505,244.152740 
	C260.462585,236.071182 265.147339,227.607162 260.393188,219.744736 
	C260.276123,219.551132 260.552063,219.128067 260.628357,218.808136 
	C261.238525,216.249786 262.260315,213.708160 262.370026,211.128006 
	C262.640350,204.768814 262.669464,198.386215 262.470245,192.023224 
	C262.151428,181.841385 260.874786,171.637177 261.321716,161.500565 
	C261.669006,153.623779 263.123291,145.924683 261.701233,137.904770 
	C260.709137,132.309586 261.355011,126.406578 261.435822,120.643410 
	C261.517548,114.816360 261.804504,108.992195 262.001556,103.166763 
	C277.026459,103.114983 292.051331,103.063194 307.539368,103.088913 
z"/>
<path fill="#D1F1EA" opacity="1.000000" stroke="none" 
	d="
M146.006073,283.999237 
	C146.919434,282.583252 148.915375,280.296204 148.582748,279.882812 
	C144.067017,274.270721 146.401367,268.245117 146.951218,262.255890 
	C147.306854,258.382080 147.023376,254.449280 147.020721,250.542908 
	C147.016068,243.643311 147.106415,236.741852 146.977997,229.844513 
	C146.755463,217.893631 146.172531,205.945526 146.160645,193.995834 
	C146.149841,183.146454 146.811859,172.297867 146.940033,161.446136 
	C146.986603,157.501968 146.080597,153.545715 146.139648,149.602921 
	C146.167145,147.767838 147.460327,145.951706 148.755859,144.349579 
	C156.601395,157.839600 163.804886,171.143967 171.195145,184.343750 
	C172.698608,187.029114 174.528305,189.787704 176.876846,191.683472 
	C180.308273,194.453430 184.869766,192.967239 187.066483,189.007507 
	C189.724411,184.879913 192.630417,180.889206 194.996490,176.600601 
	C204.306412,159.725998 213.444321,142.756500 222.653229,125.826111 
	C223.491821,124.284363 224.381561,122.770447 225.837006,121.340637 
	C226.002426,125.018425 225.589264,128.600494 225.151459,132.179565 
	C224.659744,136.199509 223.826889,140.208145 223.718430,144.237198 
	C223.567245,149.854126 223.976334,155.484879 224.097702,161.110733 
	C224.214935,166.545639 224.182220,171.985153 224.382324,177.416489 
	C224.545639,181.849655 225.265381,186.281586 225.153976,190.699310 
	C225.069992,194.029144 223.670746,197.323486 223.566849,200.655762 
	C223.447357,204.488480 224.163193,208.342178 224.408630,212.193619 
	C224.522995,213.988098 224.365616,215.798706 224.362610,217.602051 
	C224.351074,224.541595 223.871704,231.523849 224.483261,238.408768 
	C225.098404,245.334198 223.289658,252.787308 227.971191,259.386047 
	C222.667313,269.505188 217.404663,279.275421 211.858566,289.232452 
	C206.411331,300.292145 197.619278,304.629089 185.854721,304.052429 
	C180.226608,303.776520 174.570251,304.076416 168.926697,304.115540 
	C156.518570,304.381104 150.989044,296.108948 146.382782,285.800842 
	C146.016769,284.905426 146.011429,284.452332 146.006073,283.999237 
z"/>
<path fill="#D5F1EB" opacity="1.000000" stroke="none" 
	d="
M228.012451,259.037170 
	C223.289658,252.787308 225.098404,245.334198 224.483261,238.408768 
	C223.871704,231.523849 224.351074,224.541595 224.362610,217.602051 
	C224.365616,215.798706 224.522995,213.988098 224.408630,212.193619 
	C224.163193,208.342178 223.447357,204.488480 223.566849,200.655762 
	C223.670746,197.323486 225.069992,194.029144 225.153976,190.699310 
	C225.265381,186.281586 224.545639,181.849655 224.382324,177.416489 
	C224.182220,171.985153 224.214935,166.545639 224.097702,161.110733 
	C223.976334,155.484879 223.567245,149.854126 223.718430,144.237198 
	C223.826889,140.208145 224.659744,136.199509 225.151459,132.179565 
	C225.589264,128.600494 226.002426,125.018425 226.159454,121.194931 
	C230.654739,109.030647 237.342239,102.480011 245.591782,102.946999 
	C250.737717,103.238289 255.913132,103.008728 261.538452,103.089836 
	C261.804504,108.992195 261.517548,114.816360 261.435822,120.643410 
	C261.355011,126.406578 260.709137,132.309586 261.701233,137.904770 
	C263.123291,145.924683 261.669006,153.623779 261.321716,161.500565 
	C260.874786,171.637177 262.151428,181.841385 262.470245,192.023224 
	C262.669464,198.386215 262.640350,204.768814 262.370026,211.128006 
	C262.260315,213.708160 261.238525,216.249786 260.628357,218.808136 
	C260.552063,219.128067 260.276123,219.551132 260.393188,219.744736 
	C265.147339,227.607162 260.462585,236.071182 261.955505,244.152740 
	C262.642578,247.872040 263.079315,251.673050 263.189667,255.449860 
	C263.253754,257.642944 262.160461,259.851959 262.086151,262.070526 
	C261.910553,267.311981 261.941284,272.565399 262.057068,277.810303 
	C262.216003,285.008484 262.668884,292.147949 262.280334,299.412933 
	C261.778687,308.793121 263.268005,318.270142 263.685699,327.714935 
	C263.815369,330.647125 263.068268,333.608002 263.034363,336.559357 
	C262.937073,345.021179 263.105713,353.486572 262.972107,361.947418 
	C262.806488,372.437500 262.317230,382.923279 262.219818,393.413269 
	C262.174561,398.285156 262.724426,403.162567 262.571838,408.500397 
	C260.402557,409.017822 258.666016,409.072327 256.929443,409.126831 
	C254.440903,409.084534 251.936356,408.840424 249.466736,409.036469 
	C240.863312,409.719452 235.959991,404.075867 235.976028,395.666809 
	C236.035568,364.446686 235.994980,333.226379 235.983566,301.112885 
	C236.104721,295.491760 236.234314,290.763855 236.517654,285.588074 
	C236.671402,272.399658 236.671402,259.659149 236.671402,246.918625 
	C236.177689,246.873337 235.683975,246.828049 235.190262,246.782776 
	C232.797653,250.867569 230.405045,254.952362 228.012451,259.037170 
z"/>
<path fill="#F0F1F1" opacity="1.000000" stroke="none" 
	d="
M562.829163,117.942612 
	C564.305115,116.960625 565.781006,115.978630 567.800293,115.230865 
	C568.627380,116.608002 569.206604,117.769150 569.137451,118.890297 
	C568.955017,121.847229 568.112488,124.799164 568.208191,127.731033 
	C568.533264,137.685013 571.063782,147.554733 569.049500,157.610123 
	C568.582031,159.943344 568.848755,162.453186 568.980652,164.870651 
	C569.242249,169.663864 569.777954,174.445114 569.932068,179.239914 
	C570.005310,181.515671 569.207214,183.815857 569.248718,186.096909 
	C569.349487,191.641785 569.908264,197.181488 569.920410,202.724075 
	C569.938721,211.101242 569.658691,219.479279 569.484680,227.856537 
	C569.427246,230.622955 569.183411,233.390427 569.237549,236.153259 
	C569.378967,243.362244 569.955505,250.577637 569.757874,257.773987 
	C569.573120,264.499268 568.727234,271.216583 567.925598,277.907837 
	C567.713806,279.675934 566.591248,281.334869 565.526062,283.019531 
	C556.060791,277.966156 547.767273,271.998383 542.016113,262.776947 
	C541.926025,262.347656 541.879639,262.178192 541.844543,261.650940 
	C540.515930,258.207458 539.176086,255.121750 537.738159,251.668823 
	C536.394714,244.836197 535.149353,238.370804 533.947266,231.465652 
	C533.634888,220.369324 533.279297,209.712738 533.229370,198.763519 
	C533.535095,193.553040 533.535095,188.635223 533.535095,183.425797 
	C518.518616,183.425797 503.746857,183.425797 488.609985,183.336319 
	C487.496155,183.175049 486.747467,183.103256 485.991791,182.646271 
	C485.541229,179.751389 484.734528,177.239197 484.751801,174.732697 
	C484.770660,171.991669 485.840179,169.267227 485.948303,166.515778 
	C486.345184,156.415588 484.360291,146.255203 486.903809,136.186142 
	C487.317535,134.548325 486.553162,132.622116 486.381104,130.824646 
	C486.185822,128.784653 485.732483,126.706451 485.944916,124.703583 
	C486.372131,120.676163 487.599609,116.697853 487.687164,112.681633 
	C487.756012,109.523544 486.609161,106.338951 486.002319,103.166130 
	C505.432831,103.110359 524.863770,102.954338 544.293518,103.052208 
	C551.270447,103.087349 554.981812,108.241570 555.025085,117.886673 
	C555.041138,120.217949 555.041138,121.731026 555.041138,124.547729 
	C558.285583,121.796059 560.557373,119.869331 562.829163,117.942612 
z"/>
<path fill="#EAE8F1" opacity="1.000000" stroke="none" 
	d="
M605.998291,103.166046 
	C621.355347,103.116699 636.712402,103.067352 652.533875,103.531509 
	C653.212830,106.508163 653.477051,108.968185 653.632568,111.435059 
	C654.100159,118.853897 655.116821,126.296974 654.847168,133.691498 
	C654.236389,150.441620 652.983521,167.168335 651.530273,183.949371 
	C648.071594,184.006851 645.071167,183.932968 642.078003,184.048431 
	C633.085632,184.395264 627.717407,193.881516 631.016479,202.291718 
	C634.048340,210.020767 640.175354,210.951187 646.990295,211.736359 
	C647.336365,220.675827 647.797241,229.162933 647.960083,237.655762 
	C648.020020,240.779465 647.063660,243.921951 647.116333,247.046677 
	C647.235352,254.108780 647.991455,261.167114 647.944397,268.223389 
	C647.874817,278.672913 647.333496,289.119293 646.594360,299.692902 
	C644.291809,299.520386 642.390991,299.199432 640.483215,298.927521 
	C631.653564,297.668854 622.822021,296.423798 613.570679,295.114746 
	C610.432312,294.651184 607.714417,294.246735 604.997681,293.398071 
	C604.665894,287.503235 604.019897,282.049835 604.069031,276.602661 
	C604.155457,267.018951 604.859070,257.440552 604.932373,247.857086 
	C604.981140,241.464508 603.983398,235.055435 604.167114,228.674286 
	C604.489807,217.474167 605.114807,206.268982 606.066528,195.104568 
	C607.084717,183.160538 604.253784,171.333359 605.802979,159.317047 
	C606.837402,151.293381 606.000122,143.028397 605.999939,134.871399 
	C605.999695,124.302948 605.998840,113.734489 605.998291,103.166046 
z"/>
<path fill="#EDECF1" opacity="1.000000" stroke="none" 
	d="
M605.585938,103.099892 
	C605.998840,113.734489 605.999695,124.302948 605.999939,134.871399 
	C606.000122,143.028397 606.837402,151.293381 605.802979,159.317047 
	C604.253784,171.333359 607.084717,183.160538 606.066528,195.104568 
	C605.114807,206.268982 604.489807,217.474167 604.167114,228.674286 
	C603.983398,235.055435 604.981140,241.464508 604.932373,247.857086 
	C604.859070,257.440552 604.155457,267.018951 604.069031,276.602661 
	C604.019897,282.049835 604.665894,287.503235 604.579102,293.461426 
	C597.617798,292.637054 591.052612,291.409698 584.542480,289.938934 
	C579.649292,288.833466 574.826660,287.415466 569.662292,286.009094 
	C568.196899,284.935699 567.041870,283.989807 565.886841,283.043915 
	C566.591248,281.334869 567.713806,279.675934 567.925598,277.907837 
	C568.727234,271.216583 569.573120,264.499268 569.757874,257.773987 
	C569.955505,250.577637 569.378967,243.362244 569.237549,236.153259 
	C569.183411,233.390427 569.427246,230.622955 569.484680,227.856537 
	C569.658691,219.479279 569.938721,211.101242 569.920410,202.724075 
	C569.908264,197.181488 569.349487,191.641785 569.248718,186.096909 
	C569.207214,183.815857 570.005310,181.515671 569.932068,179.239914 
	C569.777954,174.445114 569.242249,169.663864 568.980652,164.870651 
	C568.848755,162.453186 568.582031,159.943344 569.049500,157.610123 
	C571.063782,147.554733 568.533264,137.685013 568.208191,127.731033 
	C568.112488,124.799164 568.955017,121.847229 569.137451,118.890297 
	C569.206604,117.769150 568.627380,116.608002 568.148682,115.177299 
	C578.291504,108.686432 589.569275,105.387543 601.472290,103.978371 
	C602.725769,103.829979 603.940735,103.356430 605.585938,103.099892 
z"/>
<path fill="#E4E0F0" opacity="1.000000" stroke="none" 
	d="
M651.991699,183.904556 
	C652.983521,167.168335 654.236389,150.441620 654.847168,133.691498 
	C655.116821,126.296974 654.100159,118.853897 653.632568,111.435059 
	C653.477051,108.968185 653.212830,106.508163 652.996948,103.605865 
	C677.686646,103.117851 702.377625,103.068985 727.531860,103.093399 
	C728.141235,105.481400 728.279724,107.796646 728.437744,110.110558 
	C728.492065,110.906403 728.849304,111.774796 728.638245,112.481758 
	C724.384460,126.732185 726.929810,141.089600 727.876587,155.422989 
	C727.974731,156.908478 728.286438,158.495880 727.912476,159.877258 
	C725.834656,167.553513 726.150269,175.288986 726.526611,183.526917 
	C713.042603,184.066757 700.027527,184.140579 686.546875,184.146637 
	C674.718079,184.020767 663.354919,183.962662 651.991699,183.904556 
z"/>
<path fill="#EAF2F0" opacity="1.000000" stroke="none" 
	d="
M485.539246,103.088425 
	C486.609161,106.338951 487.756012,109.523544 487.687164,112.681633 
	C487.599609,116.697853 486.372131,120.676163 485.944916,124.703583 
	C485.732483,126.706451 486.185822,128.784653 486.381104,130.824646 
	C486.553162,132.622116 487.317535,134.548325 486.903809,136.186142 
	C484.360291,146.255203 486.345184,156.415588 485.948303,166.515778 
	C485.840179,169.267227 484.770660,171.991669 484.751801,174.732697 
	C484.734528,177.239197 485.541229,179.751389 485.524475,182.684509 
	C467.701324,183.216980 450.338531,183.326019 432.549561,183.342072 
	C430.081757,183.177368 428.040131,183.105637 425.998474,183.033920 
	C429.352570,176.153946 428.860535,169.026901 428.693542,161.535004 
	C428.428955,149.662781 428.488800,137.836380 427.197723,125.982277 
	C426.407227,118.724533 427.018982,111.314056 427.001251,103.569435 
	C446.359711,103.114708 465.717926,103.062714 485.539246,103.088425 
z"/>
<path fill="#8380CA" opacity="1.000000" stroke="none" 
	d="
M50.957291,409.533813 
	C69.876953,409.078583 88.826019,409.042358 107.775070,409.001190 
	C119.609016,408.975464 124.037766,404.602325 124.097267,392.882477 
	C124.134399,385.569061 124.158630,378.255554 124.618637,370.463501 
	C129.698639,369.245239 133.535339,365.134003 138.830368,366.752136 
	C139.494400,366.955078 140.590424,365.486603 141.575485,364.959106 
	C142.950562,364.222778 144.409668,363.643372 145.832825,362.996826 
	C145.887466,378.323273 146.339310,393.662354 145.852539,408.971588 
	C145.544922,418.646179 142.545441,424.262543 130.476212,424.087067 
	C108.651802,423.769745 86.814865,423.739624 64.992630,424.125519 
	C56.052685,424.283600 50.592644,419.298981 50.957291,409.533813 
z"/>
<path fill="#6DB8C5" opacity="1.000000" stroke="none" 
	d="
M1018.188538,206.024063 
	C1018.149231,177.331024 1018.108154,148.637985 1018.086243,119.944931 
	C1018.085876,119.467773 1018.319641,118.990448 1018.754517,118.222809 
	C1020.228210,117.952744 1021.399292,118.069420 1022.554016,117.978745 
	C1037.108154,116.835953 1039.650879,124.155434 1039.866333,135.226685 
	C1040.312622,158.164825 1039.980957,181.118103 1039.445923,204.531082 
	C1032.011353,205.339355 1025.099976,205.681717 1018.188538,206.024063 
z"/>
<path fill="#50B5AC" opacity="1.000000" stroke="none" 
	d="
M966.528015,408.898407 
	C979.971558,408.881378 992.950745,409.034393 1005.927185,408.908691 
	C1012.658752,408.843475 1016.442383,404.818817 1018.514160,396.405151 
	C1026.900879,396.754944 1033.909668,399.613220 1039.833496,404.996185 
	C1039.882324,406.396393 1039.931152,407.796600 1039.720215,409.748779 
	C1039.239258,410.532837 1039.098389,410.806427 1039.037964,411.121429 
	C1038.841309,420.099548 1034.936523,423.994781 1026.080811,423.997559 
	C1003.267090,424.004700 980.449524,423.746796 957.641174,424.097656 
	C945.261780,424.288055 943.614807,419.966888 941.972046,409.533722 
	C949.988220,409.072662 958.025391,409.012756 966.528015,408.898407 
z"/>
<path fill="#63B7BD" opacity="1.000000" stroke="none" 
	d="
M1018.135742,206.488281 
	C1025.099976,205.681717 1032.011353,205.339355 1039.377563,204.994812 
	C1039.877563,230.350464 1039.922729,255.708313 1039.526855,281.474121 
	C1032.317261,279.123138 1025.310791,279.033691 1018.208252,280.020630 
	C1018.166443,255.664597 1018.124695,231.308548 1018.135742,206.488281 
z"/>
<path fill="#58B6B3" opacity="1.000000" stroke="none" 
	d="
M887.536316,299.076111 
	C897.736023,299.276520 907.468994,299.705597 917.199951,299.665802 
	C921.005310,299.650177 922.232544,300.947693 921.883057,304.554352 
	C921.566711,307.818909 921.555786,311.113068 921.150513,314.719421 
	C904.797852,315.044678 888.704834,315.044678 871.968933,315.044678 
	C871.968933,320.895569 871.968933,326.481537 871.541626,332.540527 
	C869.399048,333.002594 867.109863,333.700989 866.067810,332.857941 
	C861.557373,329.208832 856.233826,329.528137 851.046143,329.004089 
	C851.046143,319.280609 851.046143,309.557159 851.046143,299.117218 
	C863.334106,299.117218 875.201416,299.117218 887.536316,299.076111 
z"/>
<path fill="#5AB6B5" opacity="1.000000" stroke="none" 
	d="
M1018.149475,280.484619 
	C1025.310791,279.033691 1032.317261,279.123138 1039.458130,281.937836 
	C1039.879150,282.748962 1039.927856,283.504333 1039.593750,284.695007 
	C1039.419434,286.085175 1039.628052,287.039948 1039.836426,287.994751 
	C1039.829834,306.511353 1039.823120,325.027985 1039.079590,343.823425 
	C1036.596680,344.128357 1034.799561,344.434601 1033.114258,344.127777 
	C1028.126953,343.219788 1023.183777,342.069763 1018.223328,341.014435 
	C1018.179077,320.992493 1018.134888,300.970520 1018.149475,280.484619 
z"/>
<path fill="#8069C2" opacity="1.000000" stroke="none" 
	d="
M570.998962,423.826050 
	C540.974670,423.876068 510.950348,423.926086 480.512207,423.556946 
	C482.067474,418.480682 484.036499,413.823578 486.452362,409.107025 
	C489.600952,408.979523 492.302673,408.911469 495.469147,408.905884 
	C520.962280,409.030273 545.990723,409.092194 571.012878,409.609833 
	C571.004028,414.652405 571.001526,419.239227 570.998962,423.826050 
z"/>
<path fill="#858ACE" opacity="1.000000" stroke="none" 
	d="
M236.363907,286.035980 
	C236.234314,290.763855 236.104721,295.491760 235.932861,300.651978 
	C233.125534,305.022491 230.605713,309.165497 227.531815,312.845642 
	C223.894287,317.200623 218.893402,319.035278 213.205490,319.005157 
	C206.572540,318.970032 199.898468,318.528076 193.315125,319.100739 
	C181.623245,320.117828 174.080368,314.849182 169.074051,304.429199 
	C174.570251,304.076416 180.226608,303.776520 185.854721,304.052429 
	C197.619278,304.629089 206.411331,300.292145 212.280243,289.217896 
	C220.778214,288.023041 228.571060,287.029510 236.363907,286.035980 
z"/>
<path fill="#45B3A2" opacity="1.000000" stroke="none" 
	d="
M720.989868,403.838959 
	C733.034973,400.035706 743.875610,394.161224 753.990295,385.212097 
	C753.990295,388.186829 754.066284,391.163910 753.974792,394.135803 
	C753.768677,400.831329 755.928223,406.032928 762.899048,408.738922 
	C755.293274,415.596985 745.836609,418.450592 736.248169,420.985870 
	C724.986023,423.963654 713.491333,424.358368 701.466980,423.513611 
	C699.927002,420.798828 698.993958,418.455994 697.740295,416.299530 
	C696.306763,413.833771 694.588135,411.533752 693.421570,409.094788 
	C702.896423,407.298248 711.943176,405.568604 720.989868,403.838959 
z"/>
<path fill="#8487CD" opacity="1.000000" stroke="none" 
	d="
M145.901871,362.532867 
	C144.409668,363.643372 142.950562,364.222778 141.575485,364.959106 
	C140.590424,365.486603 139.494400,366.955078 138.830368,366.752136 
	C133.535339,365.134003 129.698639,369.245239 124.696640,370.002869 
	C124.289589,350.329834 124.234528,330.638794 124.618202,310.480896 
	C132.264221,308.510132 141.641541,313.431458 145.832718,302.997253 
	C145.878784,322.687805 145.924850,342.378357 145.901871,362.532867 
z"/>
<path fill="#54B5B0" opacity="1.000000" stroke="none" 
	d="
M1018.159546,341.478363 
	C1023.183777,342.069763 1028.126953,343.219788 1033.114258,344.127777 
	C1034.799561,344.434601 1036.596680,344.128357 1038.726440,344.072113 
	C1039.405640,346.783112 1039.945312,349.523254 1039.956543,352.265594 
	C1040.026855,369.532898 1039.979614,386.800629 1039.902344,404.532227 
	C1033.909668,399.613220 1026.900879,396.754944 1018.579651,396.021362 
	C1018.155212,377.988098 1018.125488,359.965210 1018.159546,341.478363 
z"/>
<path fill="#72B9CA" opacity="1.000000" stroke="none" 
	d="
M851.030273,181.002731 
	C851.017029,160.287872 851.003784,139.573013 851.041748,118.387978 
	C853.579407,117.942955 856.065674,117.978142 858.552124,117.991463 
	C866.893921,118.036148 871.984680,123.029190 871.995361,131.284470 
	C872.013428,145.212463 871.982727,159.140533 871.551270,173.583801 
	C864.430054,176.400269 857.730103,178.701508 851.030273,181.002731 
z"/>
<path fill="#8278C7" opacity="1.000000" stroke="none" 
	d="
M256.956970,409.543274 
	C258.666016,409.072327 260.402557,409.017822 262.570709,408.903412 
	C278.359192,408.882568 293.716095,408.921661 309.538635,408.899109 
	C316.209717,408.859039 322.586670,410.205078 328.207550,406.004639 
	C328.894287,405.491394 330.547424,406.172943 331.723938,406.431580 
	C335.532623,407.268738 339.327942,408.166901 343.492676,409.430847 
	C343.016785,410.585632 342.244690,411.446777 341.325134,412.100433 
	C336.687469,415.396637 331.992310,418.612305 327.383972,421.948425 
	C327.000854,422.225739 327.114136,423.188782 326.996826,423.833252 
	C307.290619,423.888977 287.584015,424.038483 267.878448,423.950409 
	C260.818542,423.918854 257.084625,418.843048 256.956970,409.543274 
z"/>
<path fill="#816FC4" opacity="1.000000" stroke="none" 
	d="
M486.005554,409.166504 
	C484.036499,413.823578 482.067474,418.480682 480.048279,423.485718 
	C454.307404,423.881012 428.616608,423.928406 402.463348,423.533081 
	C402.813812,421.413818 403.446320,419.615509 404.477905,418.086487 
	C406.536987,415.034546 408.815002,412.130280 411.002625,409.165009 
	C418.693054,409.097870 426.383484,409.030731 435.003998,408.960907 
	C452.624573,409.027649 469.315063,409.097076 486.005554,409.166504 
z"/>
<path fill="#40B39D" opacity="1.000000" stroke="none" 
	d="
M692.993408,409.161713 
	C694.588135,411.533752 696.306763,413.833771 697.740295,416.299530 
	C698.993958,418.455994 699.927002,420.798828 701.002991,423.446533 
	C676.646484,423.878510 652.288574,423.923248 627.408752,423.531372 
	C625.922913,418.455078 624.959045,413.815399 624.460205,409.110046 
	C647.614563,409.083466 670.304016,409.122589 692.993408,409.161713 
z"/>
<path fill="#4CB4A8" opacity="1.000000" stroke="none" 
	d="
M835.998779,409.163147 
	C849.603577,408.195618 849.755432,402.680328 850.809570,391.381195 
	C851.286194,386.273102 850.919495,381.086273 851.361084,375.516785 
	C855.342773,376.314362 858.840698,377.761353 862.472717,378.675079 
	C865.511536,379.439575 868.707153,379.580688 871.833374,379.997864 
	C871.888123,390.736877 872.212463,401.483795 871.896667,412.211914 
	C871.706665,418.664246 867.693604,425.225891 856.361267,423.567780 
	C850.470459,419.892487 845.023804,416.718201 839.748474,413.281097 
	C838.243225,412.300385 837.234924,410.556854 835.998779,409.163147 
z"/>
<path fill="#8173C6" opacity="1.000000" stroke="none" 
	d="
M410.537537,409.101471 
	C408.815002,412.130280 406.536987,415.034546 404.477905,418.086487 
	C403.446320,419.615509 402.813812,421.413818 401.999390,423.461853 
	C387.588013,423.888763 373.174988,424.114319 358.770691,423.854980 
	C355.919159,423.803619 353.101196,421.889435 350.036804,420.748352 
	C343.886871,427.017242 335.470917,422.872375 327.460602,423.904602 
	C327.114136,423.188782 327.000854,422.225739 327.383972,421.948425 
	C331.992310,418.612305 336.687469,415.396637 341.325134,412.100433 
	C342.244690,411.446777 343.016785,410.585632 343.927490,409.491272 
	C353.023285,409.096283 362.048462,409.030182 371.539124,408.901093 
	C384.693878,408.904694 397.383118,408.971313 410.537537,409.101471 
z"/>
<path fill="#49B4A5" opacity="1.000000" stroke="none" 
	d="
M835.533203,409.104553 
	C837.234924,410.556854 838.243225,412.300385 839.748474,413.281097 
	C845.023804,416.718201 850.470459,419.892487 855.926514,423.499939 
	C832.681946,423.887939 809.362671,424.016541 786.043884,423.953278 
	C778.834534,423.933716 775.098267,418.951111 774.975098,409.554688 
	C783.992188,409.077606 793.027222,409.015686 802.527222,408.895599 
	C813.684082,408.906952 824.375854,408.976471 835.533203,409.104553 
z"/>
<path fill="#51B5AD" opacity="1.000000" stroke="none" 
	d="
M871.901367,379.533661 
	C868.707153,379.580688 865.511536,379.439575 862.472717,378.675079 
	C858.840698,377.761353 855.342773,376.314362 851.416687,375.051270 
	C851.011597,359.981476 850.976562,344.958740 850.993835,329.470032 
	C856.233826,329.528137 861.557373,329.208832 866.067810,332.857941 
	C867.109863,333.700989 869.399048,333.002594 871.473877,333.003998 
	C871.878784,348.352783 871.924133,363.711151 871.901367,379.533661 
z"/>
<path fill="#858FD0" opacity="1.000000" stroke="none" 
	d="
M145.901703,302.534424 
	C141.641541,313.431458 132.264221,308.510132 124.691986,310.019897 
	C124.273682,289.009308 124.220345,267.992798 124.355759,246.514587 
	C124.544525,246.052856 124.804626,246.071609 124.804626,246.071609 
	C131.225677,257.692963 137.647751,269.313751 144.065796,280.936737 
	C144.547653,281.809387 145.001007,282.697754 145.736847,283.789032 
	C146.011429,284.452332 146.016769,284.905426 146.038956,285.697601 
	C146.027420,291.381653 145.999054,296.726593 145.901703,302.534424 
z"/>
<path fill="#88A2D7" opacity="1.000000" stroke="none" 
	d="
M187.028809,188.640442 
	C184.869766,192.967239 180.308273,194.453430 176.876846,191.683472 
	C174.528305,189.787704 172.698608,187.029114 171.195145,184.343750 
	C163.804886,171.143967 156.601395,157.839600 149.134583,144.289902 
	C144.386917,135.529816 139.836609,127.051994 135.197937,118.238945 
	C146.355530,116.991402 151.768661,124.326378 156.422913,132.862015 
	C165.906509,150.254456 175.461380,167.608047 184.997498,184.971802 
	C185.615829,186.097702 186.324478,187.174011 187.028809,188.640442 
z"/>
<path fill="#3BB29A" opacity="1.000000" stroke="none" 
	d="
M623.995178,409.175720 
	C624.959045,413.815399 625.922913,418.455078 626.944580,423.464111 
	C608.643738,423.878021 590.285034,423.922607 571.462646,423.896606 
	C571.001526,419.239227 571.004028,414.652405 571.476929,409.546326 
	C587.294434,408.964203 602.641602,408.901306 618.413574,408.908203 
	C620.557251,409.043915 622.276184,409.109802 623.995178,409.175720 
z"/>
<path fill="#6DB8C5" opacity="1.000000" stroke="none" 
	d="
M850.993713,181.470032 
	C857.730103,178.701508 864.430054,176.400269 871.481201,174.047546 
	C871.890564,185.655243 871.948730,197.314438 872.037292,209.433060 
	C865.711426,210.245468 859.356384,210.714905 852.997070,210.781815 
	C852.317383,210.788956 851.038025,208.458527 851.012878,207.193115 
	C850.845825,198.777481 850.944763,190.356552 850.993713,181.470032 
z"/>
<path fill="#8BB6DE" opacity="1.000000" stroke="none" 
	d="
M562.403687,117.954590 
	C560.557373,119.869331 558.285583,121.796059 555.041138,124.547729 
	C555.041138,121.731026 555.041138,120.217949 555.075500,118.311768 
	C557.399353,117.934631 559.688782,117.950600 562.403687,117.954590 
z"/>
<path fill="#63B7BD" opacity="1.000000" stroke="none" 
	d="
M1039.903442,287.624023 
	C1039.628052,287.039948 1039.419434,286.085175 1039.521240,285.068176 
	C1039.877808,285.755096 1039.924072,286.504181 1039.903442,287.624023 
z"/>
<path fill="#54B5B0" opacity="1.000000" stroke="none" 
	d="
M1039.281006,411.026794 
	C1039.098389,410.806427 1039.239258,410.532837 1039.649658,410.164185 
	C1039.733765,410.329132 1039.628906,410.630615 1039.281006,411.026794 
z"/>
<path fill="#88A2D7" opacity="1.000000" stroke="none" 
	d="
M124.790703,245.896713 
	C124.804626,246.071609 124.544525,246.052856 124.415932,246.053497 
	C124.450485,245.943375 124.613632,245.832596 124.790703,245.896713 
z"/>
<path fill="#E6E2F0" opacity="1.000000" stroke="none" 
	d="
M624.460205,409.110016 
	C622.276184,409.109802 620.557251,409.043915 618.416992,408.461182 
	C619.719055,395.949554 616.728333,383.871582 618.806274,371.811859 
	C619.473999,367.936493 617.202759,363.623016 617.508240,359.603668 
	C618.306763,349.096893 619.785950,338.641846 621.456787,328.086029 
	C635.561157,328.003387 649.202637,328.001740 662.844055,327.998138 
	C670.724182,327.996033 674.181213,324.238617 673.905762,315.613861 
	C674.168213,306.752045 670.994812,303.035217 662.928528,301.985107 
	C657.601990,301.291687 652.303772,300.380646 646.992920,299.567017 
	C647.333496,289.119293 647.874817,278.672913 647.944397,268.223389 
	C647.991455,261.167114 647.235352,254.108780 647.116333,247.046677 
	C647.063660,243.921951 648.020020,240.779465 647.960083,237.655762 
	C647.797241,229.162933 647.336365,220.675827 647.323303,211.791168 
	C649.128357,211.229797 650.603699,211.063721 652.445129,211.084854 
	C660.004333,212.232437 667.200806,213.168533 674.389771,214.159363 
	C683.522644,215.418106 692.678833,216.544998 701.768799,218.064835 
	C708.225220,219.144333 714.588684,220.779617 720.993652,222.166824 
	C724.547485,227.952148 720.798279,233.939270 721.434021,239.858932 
	C722.004761,245.173401 721.564026,250.602478 721.473389,255.979385 
	C721.429382,258.587433 720.974915,261.196106 721.034302,263.796997 
	C721.284668,274.757751 721.840576,285.714355 721.921570,296.675140 
	C721.973022,303.630005 721.273743,310.587463 721.141907,317.548126 
	C721.092346,320.164215 722.080322,322.814270 721.934326,325.411743 
	C721.218262,338.156830 722.507507,350.883331 721.358215,363.690430 
	C720.350586,374.918579 721.708008,386.354065 721.901672,397.700012 
	C721.932068,399.481201 721.329956,401.273224 721.005127,403.449585 
	C711.943176,405.568604 702.896423,407.298248 693.421570,409.094788 
	C670.304016,409.122589 647.614563,409.083466 624.460205,409.110016 
z"/>
<path fill="#000000" opacity="1.000000" stroke="none" 
	d="
M721.383301,222.091339 
	C714.588684,220.779617 708.225220,219.144333 701.768799,218.064835 
	C692.678833,216.544998 683.522644,215.418106 674.389771,214.159363 
	C667.200806,213.168533 660.004333,212.232437 652.408203,210.699646 
	C652.809753,208.105499 653.416382,205.975159 654.455688,204.082413 
	C657.569031,198.412735 663.209900,200.406357 668.459595,199.907318 
	C697.246338,200.013290 725.569641,200.044098 753.892883,200.074890 
	C753.892883,212.514450 753.892883,224.954010 753.892883,236.278732 
	C743.470154,231.650513 732.621521,226.833191 721.383301,222.091339 
z"/>
<path fill="#76B9CD" opacity="1.000000" stroke="none" 
	d="
M753.933960,199.604935 
	C725.569641,200.044098 697.246338,200.013290 668.511353,199.572968 
	C670.497192,197.224091 672.874756,195.259521 675.296692,193.351135 
	C679.186584,190.286026 683.105713,187.258072 687.012512,184.214401 
	C700.027527,184.140579 713.042603,184.066757 726.523682,183.948898 
	C732.630615,183.937683 738.298889,184.316269 743.901917,183.872192 
	C747.203918,183.610489 750.402588,182.044250 753.975098,180.965897 
	C753.975098,186.945663 753.975098,193.040329 753.933960,199.604935 
z"/>
<path fill="#EBF1F0" opacity="1.000000" stroke="none" 
	d="
M486.452393,409.107025 
	C469.315063,409.097076 452.624573,409.027649 435.469025,408.897614 
	C435.120544,403.403778 435.430664,397.966003 435.303436,392.538513 
	C435.153351,386.136139 434.501984,379.746155 434.317017,373.343628 
	C434.235565,370.524658 435.088989,367.672363 434.952576,364.862640 
	C434.712860,359.926178 433.937836,355.017517 433.610840,350.082367 
	C433.520172,348.713013 434.377289,347.306946 434.516388,345.889923 
	C434.707489,343.943085 434.511902,341.958954 434.691803,340.010162 
	C435.002777,336.641846 435.475128,333.288422 436.363342,329.492920 
	C439.255280,328.665619 441.663605,328.274170 444.534668,327.937775 
	C461.998505,328.050446 478.999573,328.108032 496.000305,328.612488 
	C497.365723,338.278473 491.432770,346.665894 493.715759,356.335754 
	C495.749847,364.951355 494.505554,374.312744 496.274445,383.027039 
	C498.088287,391.962799 496.084015,400.283478 495.004425,408.843445 
	C492.302673,408.911469 489.600952,408.979523 486.452393,409.107025 
z"/>
<path fill="#E9F2F0" opacity="1.000000" stroke="none" 
	d="
M427.003113,291.901154 
	C426.008118,278.436676 425.009949,264.972412 424.027649,251.507034 
	C423.979584,250.848526 423.815399,250.004395 424.134033,249.542343 
	C428.870270,242.674118 424.780212,235.585510 424.728943,228.608490 
	C424.721893,227.651520 424.294250,226.425140 424.733429,225.783371 
	C426.932159,222.570099 425.427917,219.757706 424.521851,216.462723 
	C431.317444,215.998199 437.699158,215.945786 444.543610,215.942673 
	C454.338043,216.050217 463.669678,216.108459 473.063599,216.554749 
	C473.283630,219.205093 473.695496,221.483887 473.550049,223.726532 
	C473.162872,229.695602 472.358185,235.640823 472.079834,241.612320 
	C471.943573,244.535278 472.743835,247.489273 472.881104,250.440353 
	C473.131042,255.815033 473.158539,261.199738 473.367737,266.576813 
	C473.470001,269.205627 474.710541,272.222107 473.803314,274.375275 
	C471.325043,280.257080 473.271942,286.071106 472.537689,291.949005 
	C457.049408,291.975128 442.026245,291.938141 427.003113,291.901154 
z"/>
<path fill="#837EC9" opacity="1.000000" stroke="none" 
	d="
M426.584961,291.963074 
	C442.026245,291.938141 457.049408,291.975128 473.001282,292.009583 
	C478.955750,292.090485 483.981445,292.173859 488.993042,292.605957 
	C486.577484,294.644958 484.331940,296.642914 481.739716,297.956940 
	C477.309448,300.202850 472.661926,302.020172 467.913361,304.101776 
	C469.274109,305.749146 470.134644,306.790985 470.531372,307.901459 
	C461.495728,307.970093 452.923920,307.970093 444.071899,307.970093 
	C444.071899,315.004028 444.071899,321.443359 444.071899,327.882721 
	C441.663605,328.274170 439.255280,328.665619 436.425659,329.114014 
	C431.876831,329.170929 427.749329,329.170929 423.602722,329.170929 
	C423.218781,328.074280 422.839355,327.481873 422.826935,326.881836 
	C422.614105,316.590424 422.531403,306.295502 422.216675,296.007568 
	C422.123871,292.974182 423.128296,291.649109 426.584961,291.963074 
z"/>
<path fill="#89A8D9" opacity="1.000000" stroke="none" 
	d="
M444.080841,215.893372 
	C437.699158,215.945786 431.317444,215.998199 424.469910,216.102753 
	C423.394592,215.138214 422.272278,214.129272 422.256805,213.103607 
	C422.132874,204.901215 422.043365,196.688568 422.374756,188.496521 
	C422.448578,186.671738 424.228638,184.915970 425.610779,183.081177 
	C428.040131,183.105637 430.081757,183.177368 432.568726,183.671387 
	C434.594696,189.010086 439.340759,189.250397 443.096680,191.057159 
	C448.144012,193.485107 453.040771,196.226120 457.541138,198.907349 
	C452.822998,198.981979 448.565796,198.981979 444.080841,198.981979 
	C444.080841,205.003510 444.080841,210.448441 444.080841,215.893372 
z"/>
<path fill="#858FD0" opacity="1.000000" stroke="none" 
	d="
M236.517654,285.588074 
	C228.571060,287.029510 220.778214,288.023041 212.563690,289.031097 
	C217.404663,279.275421 222.667313,269.505188 227.971191,259.386047 
	C230.405045,254.952362 232.797653,250.867569 235.190262,246.782776 
	C235.683975,246.828049 236.177689,246.873337 236.671402,246.918625 
	C236.671402,259.659149 236.671402,272.399658 236.517654,285.588074 
z"/>
<path fill="#000000" opacity="1.000000" stroke="none" 
	d="
M444.534668,327.937775 
	C444.071899,321.443359 444.071899,315.004028 444.071899,307.970093 
	C452.923920,307.970093 461.495728,307.970093 470.995422,307.973755 
	C481.614716,307.929199 491.306152,307.881042 501.461639,307.903961 
	C509.559174,307.982208 517.208923,308.308746 524.822266,307.920959 
	C535.959656,307.353699 542.582764,304.733765 542.010193,290.937653 
	C541.858948,287.294525 541.887268,283.643982 541.902222,279.547028 
	C541.924927,276.062103 541.878601,273.026947 541.899048,269.561829 
	C541.997131,267.100128 542.028442,265.068451 542.059753,263.036743 
	C547.767273,271.998383 556.060791,277.966156 565.526062,283.019531 
	C567.041870,283.989807 568.196899,284.935699 569.804443,286.309387 
	C585.791382,300.829742 604.646240,306.696564 625.423950,308.904053 
	C627.247131,309.310303 628.635010,309.769257 630.059265,309.969025 
	C644.653564,312.016235 659.253723,314.021393 673.852295,316.038300 
	C674.181213,324.238617 670.724182,327.996033 662.844055,327.998138 
	C649.202637,328.001740 635.561157,328.003387 620.993530,328.013184 
	C594.895752,328.293243 569.724670,328.709290 544.552490,328.787231 
	C528.369324,328.837311 512.184631,328.390015 496.000641,328.165649 
	C478.999573,328.108032 461.998505,328.050446 444.534668,327.937775 
z"/>
<path fill="#000000" opacity="1.000000" stroke="none" 
	d="
M444.543610,215.942673 
	C444.080841,210.448441 444.080841,205.003510 444.080841,198.981979 
	C448.565796,198.981979 452.822998,198.981979 458.004944,198.978348 
	C473.953949,198.927216 488.978241,198.879715 504.466248,198.903397 
	C514.261169,199.001770 523.592407,199.028961 532.923645,199.056152 
	C533.279297,209.712738 533.634888,220.369324 533.560425,231.323547 
	C529.115173,231.384079 525.100037,231.146973 521.046936,230.498444 
	C520.702820,221.330429 515.872986,216.114182 509.338013,216.049500 
	C497.227356,215.929581 485.113739,216.110870 473.001343,216.166718 
	C463.669678,216.108459 454.338043,216.050217 444.543610,215.942673 
z"/>
<path fill="#8AAFDB" opacity="1.000000" stroke="none" 
	d="
M504.002502,198.832214 
	C488.978241,198.879715 473.953949,198.927216 458.465912,198.903717 
	C453.040771,196.226120 448.144012,193.485107 443.096680,191.057159 
	C439.340759,189.250397 434.594696,189.010086 432.994904,183.764359 
	C450.338531,183.326019 467.701324,183.216980 485.531433,183.069702 
	C486.747467,183.103256 487.496155,183.175049 488.628540,183.663391 
	C490.578003,185.835388 492.042236,187.696213 493.730988,189.324036 
	C497.089478,192.561249 500.571533,195.670227 504.002502,198.832214 
z"/>
<path fill="#8BB6DE" opacity="1.000000" stroke="none" 
	d="
M504.466248,198.903381 
	C500.571533,195.670227 497.089478,192.561249 493.730988,189.324036 
	C492.042236,187.696213 490.578003,185.835388 488.993652,183.752869 
	C503.746857,183.425797 518.518616,183.425797 533.535095,183.425797 
	C533.535095,188.635223 533.535095,193.553040 533.229370,198.763519 
	C523.592407,199.028961 514.261169,199.001770 504.466248,198.903381 
z"/>
<path fill="#89A8D9" opacity="1.000000" stroke="none" 
	d="
M521.084900,230.909882 
	C525.100037,231.146973 529.115173,231.384079 533.517090,231.763290 
	C535.149353,238.370804 536.394714,244.836197 537.387085,251.710236 
	C535.407349,252.075150 533.654785,252.204803 531.959106,251.952148 
	C528.286804,251.404968 524.643616,250.662094 520.935425,249.533340 
	C520.949829,243.014893 521.017334,236.962387 521.084900,230.909882 
z"/>
<path fill="#858FD0" opacity="1.000000" stroke="none" 
	d="
M520.988525,249.999283 
	C524.643616,250.662094 528.286804,251.404968 531.959106,251.952148 
	C533.654785,252.204803 535.407349,252.075150 537.485229,252.077454 
	C539.176086,255.121750 540.515930,258.207458 541.418701,261.648376 
	C534.314819,262.668640 527.648010,263.333740 520.925964,263.536865 
	C520.910034,258.716339 520.949280,254.357819 520.988525,249.999283 
z"/>
<path fill="#8487CD" opacity="1.000000" stroke="none" 
	d="
M520.981201,263.998840 
	C527.648010,263.333740 534.314819,262.668640 541.407471,262.006165 
	C541.879639,262.178192 541.926025,262.347656 542.016113,262.776947 
	C542.028442,265.068451 541.997131,267.100128 541.531982,269.620422 
	C534.388428,272.071106 527.678772,274.033173 520.906616,275.538208 
	C520.889832,271.387054 520.935486,267.692932 520.981201,263.998840 
z"/>
<path fill="#7DBBD3" opacity="1.000000" stroke="none" 
	d="
M686.546875,184.146637 
	C683.105713,187.258072 679.186584,190.286026 675.296692,193.351135 
	C672.874756,195.259521 670.497192,197.224091 668.047852,199.497787 
	C663.209900,200.406357 657.569031,198.412735 654.455688,204.082413 
	C653.416382,205.975159 652.809753,208.105499 652.042236,210.512451 
	C650.603699,211.063721 649.128357,211.229797 647.319946,211.341064 
	C640.175354,210.951187 634.048340,210.020767 631.016479,202.291718 
	C627.717407,193.881516 633.085632,184.395264 642.078003,184.048431 
	C645.071167,183.932968 648.071594,184.006851 651.530212,183.949371 
	C663.354919,183.962662 674.718079,184.020767 686.546875,184.146637 
z"/>
<path fill="#49B4A5" opacity="1.000000" stroke="none" 
	d="
M673.905762,315.613861 
	C659.253723,314.021393 644.653564,312.016235 630.059265,309.969025 
	C628.635010,309.769257 627.247131,309.310303 625.414429,308.546875 
	C623.994080,306.750885 623.097778,305.295959 621.990112,304.025299 
	C619.377319,301.028137 616.663879,298.118744 613.991150,295.173889 
	C622.822021,296.423798 631.653564,297.668854 640.483215,298.927521 
	C642.390991,299.199432 644.291809,299.520386 646.594360,299.692902 
	C652.303772,300.380646 657.601990,301.291687 662.928528,301.985107 
	C670.994812,303.035217 674.168213,306.752045 673.905762,315.613861 
z"/>
<path fill="#40B39D" opacity="1.000000" stroke="none" 
	d="
M613.570679,295.114746 
	C616.663879,298.118744 619.377319,301.028137 621.990112,304.025299 
	C623.097778,305.295959 623.994080,306.750885 624.995911,308.479248 
	C604.646240,306.696564 585.791382,300.829742 570.114746,286.436890 
	C574.826660,287.415466 579.649292,288.833466 584.542480,289.938934 
	C591.052612,291.409698 597.617798,292.637054 604.577942,293.905640 
	C607.714417,294.246735 610.432312,294.651184 613.570679,295.114746 
z"/>
<path fill="#EFEFF1" opacity="1.000000" stroke="none" 
	d="
M496.000305,328.612518 
	C512.184631,328.390015 528.369324,328.837311 544.552490,328.787231 
	C569.724670,328.709290 594.895752,328.293243 620.530518,328.093353 
	C619.785950,338.641846 618.306763,349.096893 617.508240,359.603668 
	C617.202759,363.623016 619.473999,367.936493 618.806274,371.811859 
	C616.728333,383.871582 619.719055,395.949554 617.992310,408.391357 
	C602.641602,408.901306 587.294434,408.964203 571.483154,409.090576 
	C545.990723,409.092194 520.962280,409.030273 495.469147,408.905884 
	C496.084015,400.283478 498.088287,391.962799 496.274445,383.027039 
	C494.505554,374.312744 495.749847,364.951355 493.715759,356.335754 
	C491.432770,346.665894 497.365723,338.278473 496.000305,328.612518 
z"/>
<path fill="#EEF2F1" opacity="1.000000" stroke="none" 
	d="
M520.926025,263.536865 
	C520.935486,267.692932 520.889832,271.387054 520.852051,275.938965 
	C519.353577,288.996948 516.006592,292.007446 503.974884,292.065369 
	C498.985443,292.089386 493.996368,292.190948 489.007141,292.257233 
	C483.981445,292.173859 478.955750,292.090485 473.466431,291.946503 
	C473.271942,286.071106 471.325043,280.257080 473.803314,274.375275 
	C474.710541,272.222107 473.470001,269.205627 473.367737,266.576813 
	C473.158539,261.199738 473.131042,255.815033 472.881104,250.440353 
	C472.743835,247.489273 471.943573,244.535278 472.079834,241.612320 
	C472.358185,235.640823 473.162872,229.695602 473.550049,223.726532 
	C473.695496,221.483887 473.283630,219.205093 473.063599,216.554749 
	C485.113739,216.110870 497.227356,215.929581 509.338013,216.049500 
	C515.872986,216.114182 520.702820,221.330429 521.046936,230.498444 
	C521.017334,236.962387 520.949829,243.014893 520.935425,249.533340 
	C520.949280,254.357819 520.910034,258.716339 520.926025,263.536865 
z"/>
<path fill="#8278C7" opacity="1.000000" stroke="none" 
	d="
M488.993042,292.605957 
	C493.996368,292.190948 498.985443,292.089386 503.974884,292.065369 
	C516.006592,292.007446 519.353577,288.996948 520.914429,276.396027 
	C527.678772,274.033173 534.388428,272.071106 541.465210,270.050415 
	C541.878601,273.026947 541.924927,276.062103 541.544067,279.555725 
	C540.630005,280.098145 540.047302,280.037323 539.669861,280.286957 
	C527.449646,288.369080 515.229248,296.451538 503.083710,304.644958 
	C502.113159,305.299683 501.680298,306.751465 500.997559,307.832886 
	C491.306152,307.881042 481.614716,307.929199 471.459259,307.905090 
	C470.134644,306.790985 469.274109,305.749146 467.913361,304.101776 
	C472.661926,302.020172 477.309448,300.202850 481.739716,297.956940 
	C484.331940,296.642914 486.577484,294.644958 488.993042,292.605957 
z"/>
<path fill="#8173C6" opacity="1.000000" stroke="none" 
	d="
M501.461609,307.903931 
	C501.680298,306.751465 502.113159,305.299683 503.083710,304.644958 
	C515.229248,296.451538 527.449646,288.369080 539.669861,280.286957 
	C540.047302,280.037323 540.630005,280.098145 541.475098,280.005554 
	C541.887268,283.643982 541.858948,287.294525 542.010193,290.937653 
	C542.582764,304.733765 535.959656,307.353699 524.822266,307.920959 
	C517.208923,308.308746 509.559174,307.982208 501.461609,307.903931 
z"/>
</svg>